<?xml version="1.0" standalone="no"?>
<!DOCTYPE svg PUBLIC "-//W3C//DTD SVG 20010904//EN"
 "http://www.w3.org/TR/2001/REC-SVG-20010904/DTD/svg10.dtd">
<svg version="1.0" xmlns="http://www.w3.org/2000/svg"
 width="560.000000pt" height="560.000000pt" viewBox="0 0 560.000000 560.000000"
 preserveAspectRatio="xMidYMid meet">
<metadata>
Created by potrace 1.14, written by Peter Selinger 2001-2017
</metadata>
<g transform="translate(0.000000,560.000000) scale(0.100000,-0.100000)"
fill="#000000" stroke="none">
<path d="M3565 4656 c-102 -45 -133 -191 -70 -317 53 -105 309 -329 376 -329
18 0 35 9 49 28 21 25 22 34 17 142 -10 197 -40 309 -105 395 -20 27 -55 58
-77 69 -49 25 -148 32 -190 12z"/>
<path d="M3176 4441 c-3 -5 -25 -6 -49 -4 -57 7 -117 -23 -148 -74 -21 -33
-24 -50 -24 -133 1 -79 5 -106 27 -157 71 -173 185 -320 264 -342 185 -52 346
84 304 258 -11 49 -35 81 -210 289 -51 59 -70 90 -70 110 0 16 -8 36 -18 45
-20 18 -67 23 -76 8z"/>
<path d="M1975 3729 c-916 -6 -988 -10 -1067 -50 -66 -34 -98 -132 -63 -198
22 -44 65 -74 177 -129 202 -98 317 -112 972 -119 l510 -6 -145 -142 -145
-142 -130 -7 c-612 -31 -803 -50 -854 -86 -34 -24 -70 -87 -70 -122 1 -40 38
-107 71 -127 35 -22 204 -55 353 -71 91 -9 116 -15 105 -23 -125 -90 -466
-395 -723 -647 -309 -304 -339 -346 -283 -398 33 -31 68 -28 207 18 354 117
693 291 1030 529 96 67 398 306 545 430 59 50 61 50 130 51 91 1 322 18 346
25 11 4 19 3 19 -2 0 -22 -209 -282 -401 -499 -254 -285 -480 -548 -752 -872
-108 -129 -137 -169 -137 -192 0 -38 32 -70 68 -70 70 0 719 407 961 602 265
215 599 613 716 853 89 182 82 409 -15 541 -18 25 -54 54 -92 75 -62 33 -66
34 -176 33 l-112 -1 23 31 c126 164 165 249 174 370 12 177 -62 294 -217 340
-30 9 -74 15 -99 14 -25 -1 -442 -5 -926 -9z"/>
<path d="M3899 3516 c-68 -27 -101 -51 -155 -108 -108 -114 -174 -301 -174
-492 0 -243 153 -417 413 -470 146 -30 283 -11 393 55 105 64 220 208 266 335
30 83 37 249 13 329 -49 170 -206 294 -406 320 -30 3 -82 18 -116 31 -80 31
-158 32 -234 0z m329 -472 c17 -7 32 -20 32 -29 0 -30 -28 -80 -64 -115 -34
-32 -42 -35 -92 -34 -32 1 -64 8 -80 19 -25 16 -26 20 -20 77 4 33 11 71 17
85 9 25 10 25 92 18 45 -4 97 -13 115 -21z"/>
</g>
</svg>
